<?xml version="1.0" standalone="no"?>
<!DOCTYPE svg PUBLIC "-//W3C//DTD SVG 20010904//EN"
 "http://www.w3.org/TR/2001/REC-SVG-20010904/DTD/svg10.dtd">
<svg version="1.0" xmlns="http://www.w3.org/2000/svg"
 width="160.000000pt" height="160.000000pt" viewBox="0 0 160.000000 160.000000"
 preserveAspectRatio="xMidYMid meet">
<metadata>
Created by potrace 1.16, written by Peter Selinger 2001-2019
</metadata>
<g transform="translate(0.000000,160.000000) scale(0.100000,-0.100000)"
fill="#000000" stroke="none">
<path d="M583 1123 c-7 -2 -13 -11 -13 -19 0 -8 -11 -19 -25 -24 -14 -5 -25
-17 -25 -27 -4 -122 3 -300 12 -310 7 -9 42 -13 116 -13 84 0 109 -3 124 -17
17 -15 19 -15 36 0 15 14 40 17 123 17 68 0 109 4 117 12 8 8 12 58 12 159 0
156 -3 179 -26 179 -8 0 -18 8 -21 18 -10 28 -24 32 -103 32 -52 0 -82 -5 -98
-16 -20 -14 -24 -14 -44 0 -22 16 -154 22 -185 9z m179 -30 c16 -14 18 -34 18
-167 l0 -151 -87 4 c-49 1 -94 8 -100 13 -14 11 -19 298 -6 311 3 4 40 7 81 7
56 0 80 -4 94 -17z m232 1 c12 -31 7 -289 -6 -302 -7 -7 -42 -12 -88 -12 -46
0 -81 -5 -88 -12 -9 -9 -12 23 -12 147 0 196 -1 195 110 195 62 0 79 -3 84
-16z"/>
</g>
</svg>
